<svg width="1200" height="800" viewBox="0 0 1200 800" fill="none" xmlns="http://www.w3.org/2000/svg">
  <rect width="1200" height="800" fill="#0D1117"/>
  <g opacity="0.22" stroke="#F4F0E8" stroke-width="1">
    <path d="M-20 145C90 105 170 111 272 159C370 205 453 210 554 156C653 103 756 91 859 135C961 178 1049 179 1219 113"/>
    <path d="M-31 210C75 154 168 168 269 212C362 253 467 270 577 206C680 146 789 143 885 189C976 232 1073 232 1231 169"/>
    <path d="M-20 276C72 226 183 218 288 276C397 337 493 326 595 265C702 202 808 212 907 252C1007 292 1090 289 1220 235"/>
    <path d="M-12 347C94 285 191 293 300 348C409 403 515 394 613 333C711 272 814 270 920 324C1024 377 1107 358 1222 308"/>
    <path d="M-29 421C82 355 202 357 308 416C417 477 537 471 639 401C743 331 845 343 947 389C1049 435 1119 427 1234 376"/>
    <path d="M-14 501C94 430 215 436 326 489C445 546 546 544 658 472C767 402 875 414 982 469C1085 522 1148 496 1222 458"/>
    <path d="M-30 583C80 504 221 510 344 565C458 616 576 626 685 544C790 465 902 486 1001 542C1091 592 1161 581 1230 535"/>
    <path d="M-10 670C101 589 237 586 359 647C474 704 597 704 706 625C817 545 920 558 1020 616C1110 669 1177 655 1228 618"/>
  </g>
  <g opacity="0.12" stroke="#E6C15A" stroke-width="2">
    <path d="M40 90C138 48 252 42 356 88C467 137 538 133 646 83C748 35 848 43 942 95C1036 148 1123 136 1180 101"/>
    <path d="M39 728C142 672 257 677 375 729C491 780 610 785 724 717C826 657 923 654 1031 713C1100 750 1154 748 1190 721"/>
  </g>
</svg>
