<svg xmlns="http://www.w3.org/2000/svg" viewBox="0 0 1200 630" role="img" aria-label="Light touch. Real story behind the door.">

    <defs>
      <linearGradient id="bg" x1="0" y1="0" x2="1" y2="1">
        <stop offset="0%" stop-color="#f4efe3"/>
        <stop offset="58%" stop-color="#eee5d6"/>
        <stop offset="100%" stop-color="#d8ede8"/>
      </linearGradient>
      <radialGradient id="glow" cx="78%" cy="28%" r="58%">
        <stop offset="0%" stop-color="#c46a22" stop-opacity="0.42"/>
        <stop offset="65%" stop-color="#0e7373" stop-opacity="0.10"/>
        <stop offset="100%" stop-color="#f4efe3" stop-opacity="0"/>
      </radialGradient>
      <filter id="softShadow" x="-20%" y="-20%" width="140%" height="140%">
        <feDropShadow dx="0" dy="18" stdDeviation="24" flood-color="#000" flood-opacity="0.18"/>
      </filter>
    </defs>
<defs><marker id="arrow" markerWidth="10" markerHeight="10" refX="5" refY="3" orient="auto" markerUnits="strokeWidth"><path d="M0,0 L0,6 L6,3 z" fill="#2a3138"/></marker></defs>
<rect width="1200" height="630" fill="url(#bg)"/>
<rect width="1200" height="630" fill="url(#glow)"/>
<path d="M0 0 V630" stroke="#2a3138" stroke-width="1" opacity="0.10"/>
<path d="M80 0 V630" stroke="#2a3138" stroke-width="1" opacity="0.10"/>
<path d="M160 0 V630" stroke="#2a3138" stroke-width="1" opacity="0.10"/>
<path d="M240 0 V630" stroke="#2a3138" stroke-width="1" opacity="0.10"/>
<path d="M320 0 V630" stroke="#2a3138" stroke-width="1" opacity="0.10"/>
<path d="M400 0 V630" stroke="#2a3138" stroke-width="1" opacity="0.10"/>
<path d="M480 0 V630" stroke="#2a3138" stroke-width="1" opacity="0.10"/>
<path d="M560 0 V630" stroke="#2a3138" stroke-width="1" opacity="0.10"/>
<path d="M640 0 V630" stroke="#2a3138" stroke-width="1" opacity="0.10"/>
<path d="M720 0 V630" stroke="#2a3138" stroke-width="1" opacity="0.10"/>
<path d="M800 0 V630" stroke="#2a3138" stroke-width="1" opacity="0.10"/>
<path d="M880 0 V630" stroke="#2a3138" stroke-width="1" opacity="0.10"/>
<path d="M960 0 V630" stroke="#2a3138" stroke-width="1" opacity="0.10"/>
<path d="M1040 0 V630" stroke="#2a3138" stroke-width="1" opacity="0.10"/>
<path d="M1120 0 V630" stroke="#2a3138" stroke-width="1" opacity="0.10"/>
<path d="M1200 0 V630" stroke="#2a3138" stroke-width="1" opacity="0.10"/>
<path d="M0 0 H1200" stroke="#2a3138" stroke-width="1" opacity="0.08"/>
<path d="M0 80 H1200" stroke="#2a3138" stroke-width="1" opacity="0.08"/>
<path d="M0 160 H1200" stroke="#2a3138" stroke-width="1" opacity="0.08"/>
<path d="M0 240 H1200" stroke="#2a3138" stroke-width="1" opacity="0.08"/>
<path d="M0 320 H1200" stroke="#2a3138" stroke-width="1" opacity="0.08"/>
<path d="M0 400 H1200" stroke="#2a3138" stroke-width="1" opacity="0.08"/>
<path d="M0 480 H1200" stroke="#2a3138" stroke-width="1" opacity="0.08"/>
<path d="M0 560 H1200" stroke="#2a3138" stroke-width="1" opacity="0.08"/>
<rect x="690" y="110" width="320" height="410" rx="30" fill="#fffaf0" stroke="#2a3138" stroke-width="2" opacity="0.88"/>
<path d="M765 496 V240 q0-78 80-78 h11 q80 0 80 78 v256" fill="none" stroke="#12151a" stroke-width="10" opacity=".86"/>
<path d="M742 502 H965" stroke="#c46a22" stroke-width="8" stroke-linecap="round"/>
<circle cx="905" cy="342" r="8" fill="#c46a22"/>
<path d="M510 490 C640 430 705 350 780 288 C860 220 960 205 1088 170" fill="none" stroke="#0e7373" stroke-width="5" opacity=".72"/>
<circle cx="1088" cy="170" r="12" fill="#c46a22"/>
<text x="82" y="100" font-family="Inter, Arial, sans-serif" font-size="18" font-weight="800" letter-spacing="4" fill="#c46a22" opacity=".92">PERSONAL HUB</text>
<text x="82" y="190.0" text-anchor="start" font-family="Inter, Arial, sans-serif" font-size="46" font-weight="820" fill="#141414" opacity="1">Light touch. Real</text>
<text x="82" y="238.8" text-anchor="start" font-family="Inter, Arial, sans-serif" font-size="46" font-weight="820" fill="#141414" opacity="1">story behind the door.</text>
<text x="86" y="329.5" text-anchor="start" font-family="Inter, Arial, sans-serif" font-size="25" font-weight="500" fill="#4c4a43" opacity="1">A quiet index for the work: Crossroads,</text>
<text x="86" y="363.3" text-anchor="start" font-family="Inter, Arial, sans-serif" font-size="25" font-weight="500" fill="#4c4a43" opacity="1">Selvatec, Maple and the things that do not</text>
<text x="86" y="397.0" text-anchor="start" font-family="Inter, Arial, sans-serif" font-size="25" font-weight="500" fill="#4c4a43" opacity="1">need a public hallway.</text>
<rect x="86" y="493" width="78" height="5" rx="3" fill="#c46a22"/>
<rect x="174" y="493" width="42" height="5" rx="3" fill="#0e7373" opacity=".8"/>
<text x="86" y="544" font-family="Inter, Arial, sans-serif" font-size="19" font-weight="700" fill="#4c4a43" opacity=".86">personal · companies · Canada / Costa Rica</text>
</svg>