<svg xmlns="http://www.w3.org/2000/svg" viewBox="0 0 900 420" role="img" aria-label="Personal hub card">

    <defs>
      <linearGradient id="bg" x1="0" y1="0" x2="1" y2="1">
        <stop offset="0%" stop-color="#f4efe3"/>
        <stop offset="58%" stop-color="#eee5d6"/>
        <stop offset="100%" stop-color="#d8ede8"/>
      </linearGradient>
      <radialGradient id="glow" cx="78%" cy="28%" r="58%">
        <stop offset="0%" stop-color="#c46a22" stop-opacity="0.42"/>
        <stop offset="65%" stop-color="#0e7373" stop-opacity="0.10"/>
        <stop offset="100%" stop-color="#f4efe3" stop-opacity="0"/>
      </radialGradient>
      <filter id="softShadow" x="-20%" y="-20%" width="140%" height="140%">
        <feDropShadow dx="0" dy="18" stdDeviation="24" flood-color="#000" flood-opacity="0.18"/>
      </filter>
    </defs>
<rect width="900" height="420" fill="url(#bg)"/>
<rect width="900" height="420" fill="url(#glow)"/>
<g transform="translate(-260,-100) scale(.78)"><path d="M0 0 V630" stroke="#2a3138" stroke-width="1" opacity="0.10"/>
<path d="M80 0 V630" stroke="#2a3138" stroke-width="1" opacity="0.10"/>
<path d="M160 0 V630" stroke="#2a3138" stroke-width="1" opacity="0.10"/>
<path d="M240 0 V630" stroke="#2a3138" stroke-width="1" opacity="0.10"/>
<path d="M320 0 V630" stroke="#2a3138" stroke-width="1" opacity="0.10"/>
<path d="M400 0 V630" stroke="#2a3138" stroke-width="1" opacity="0.10"/>
<path d="M480 0 V630" stroke="#2a3138" stroke-width="1" opacity="0.10"/>
<path d="M560 0 V630" stroke="#2a3138" stroke-width="1" opacity="0.10"/>
<path d="M640 0 V630" stroke="#2a3138" stroke-width="1" opacity="0.10"/>
<path d="M720 0 V630" stroke="#2a3138" stroke-width="1" opacity="0.10"/>
<path d="M800 0 V630" stroke="#2a3138" stroke-width="1" opacity="0.10"/>
<path d="M880 0 V630" stroke="#2a3138" stroke-width="1" opacity="0.10"/>
<path d="M960 0 V630" stroke="#2a3138" stroke-width="1" opacity="0.10"/>
<path d="M1040 0 V630" stroke="#2a3138" stroke-width="1" opacity="0.10"/>
<path d="M1120 0 V630" stroke="#2a3138" stroke-width="1" opacity="0.10"/>
<path d="M1200 0 V630" stroke="#2a3138" stroke-width="1" opacity="0.10"/>
<path d="M0 0 H1200" stroke="#2a3138" stroke-width="1" opacity="0.08"/>
<path d="M0 80 H1200" stroke="#2a3138" stroke-width="1" opacity="0.08"/>
<path d="M0 160 H1200" stroke="#2a3138" stroke-width="1" opacity="0.08"/>
<path d="M0 240 H1200" stroke="#2a3138" stroke-width="1" opacity="0.08"/>
<path d="M0 320 H1200" stroke="#2a3138" stroke-width="1" opacity="0.08"/>
<path d="M0 400 H1200" stroke="#2a3138" stroke-width="1" opacity="0.08"/>
<path d="M0 480 H1200" stroke="#2a3138" stroke-width="1" opacity="0.08"/>
<path d="M0 560 H1200" stroke="#2a3138" stroke-width="1" opacity="0.08"/>
<rect x="690" y="110" width="320" height="410" rx="30" fill="#fffaf0" stroke="#2a3138" stroke-width="2" opacity="0.88"/>
<path d="M765 496 V240 q0-78 80-78 h11 q80 0 80 78 v256" fill="none" stroke="#12151a" stroke-width="10" opacity=".86"/>
<path d="M742 502 H965" stroke="#c46a22" stroke-width="8" stroke-linecap="round"/>
<circle cx="905" cy="342" r="8" fill="#c46a22"/>
<path d="M510 490 C640 430 705 350 780 288 C860 220 960 205 1088 170" fill="none" stroke="#0e7373" stroke-width="5" opacity=".72"/>
<circle cx="1088" cy="170" r="12" fill="#c46a22"/></g>
<rect x="46" y="52" width="400" height="270" rx="28" fill="#fffaf0" stroke="#2a3138" stroke-width="2" opacity=".88"/>
<text x="76" y="103" font-family="Inter, Arial" font-size="15" letter-spacing="3" font-weight="800" fill="#c46a22">SWENS.NET</text>
<text x="76" y="171.0" text-anchor="start" font-family="Inter, Arial, sans-serif" font-size="42" font-weight="820" fill="#141414" opacity="1">Personal hub card</text>
<text x="78" y="282.0" text-anchor="start" font-family="Inter, Arial, sans-serif" font-size="21" font-weight="500" fill="#4c4a43" opacity="1">Simple entry graphic for the sparse home page.</text>
</svg>